# xmcd
#
# Track frame offsets: 
#        150
#        20573
#        36509
#        55432
#        72114
#        87803
#        106638
#        119476
#        140145
#        170134
#        188162
#        202242
#        217054
#        231604
#        247495
#        263388
#        277350
#        295939
#        311135
#        326251
#
# Disc length: 4591 seconds
#
# Revision: 1
# Processed by: cddbd v1.5.2PL0 Copyright (c) Steve Scherf et al.
# Submitted via: ExactAudioCopyFreeDBPlugin 1.0
#
DISCID=4e11ed14
DTITLE=Various Artist - Return To Soul City - Disc 2
DYEAR=2012
DGENRE=Soul
TTITLE0=Hot Chocolate - So You Win Again
TTITLE1=Tavares - Heaven Must Be Missing An Angel
TTITLE2=Bill Withers - Lovely Day
TTITLE3=The Detroit Emeralds - Feel The Need In Me
TTITLE4=Billy Ocean - Red Light Spells Danger
TTITLE5=Barry White - Just The Way You Are
TTITLE6=Deniece Williams - Free
TTITLE7=Raydio - Jack And Jill
TTITLE8=Joe Tex - Ain't Gonna Bump No More (With No Big Fat Woman)
TTITLE9=James Brown - Get Up Offa That Thing
TTITLE10=War - Low Rider
TTITLE11=The Stylistics - Can't Help Falling In Love
TTITLE12=James And Bobby Purify - I'm Your Puppet
TTITLE13=Candi Staton - Nights On Broadway
TTITLE14=Lou Rawls - You'll Never Find Another Love Like Mine
TTITLE15=Gladys Knight And The Pips - Baby Don't Change Your Mind
TTITLE16=The Moments - Jack In The Box
TTITLE17=Yvonne Elliman - Love Me
TTITLE18=The O'Jays - Used Ta Be My Girl
TTITLE19=Peaches And Herb - Reunited
EXTD=
EXTT0=
EXTT1=
EXTT2=
EXTT3=
EXTT4=
EXTT5=
EXTT6=
EXTT7=
EXTT8=
EXTT9=
EXTT10=
EXTT11=
EXTT12=
EXTT13=
EXTT14=
EXTT15=
EXTT16=
EXTT17=
EXTT18=
EXTT19=
PLAYORDER=
